<?xml version="1.0" standalone="no"?>
<!DOCTYPE svg PUBLIC "-//W3C//DTD SVG 20010904//EN"
 "http://www.w3.org/TR/2001/REC-SVG-20010904/DTD/svg10.dtd">
<svg version="1.0" xmlns="http://www.w3.org/2000/svg"
 width="1280.000000pt" height="872.000000pt" viewBox="0 0 1280.000000 872.000000"
 preserveAspectRatio="xMidYMid meet">
<metadata>
Created by potrace 1.15, written by Peter Selinger 2001-2017
</metadata>
<g transform="translate(0.000000,872.000000) scale(0.100000,-0.100000)"
fill="#000000" stroke="none">
<path d="M8050 8713 c-59 -10 -153 -47 -207 -82 -59 -38 -157 -137 -175 -176
-5 -12 -22 -29 -37 -38 -97 -57 -187 -175 -224 -292 l-22 -70 0 -1245 0 -1245
22 -70 c52 -165 177 -291 343 -348 l65 -22 1918 -3 1919 -2 309 -255 309 -255
0 142 c0 136 1 141 18 125 10 -10 22 -17 25 -17 4 0 7 61 7 135 0 135 0 135
23 135 33 0 128 34 187 66 68 37 161 136 200 213 65 130 62 63 67 1501 5 1446
8 1370 -60 1509 -43 88 -149 195 -238 238 -136 67 23 63 -2309 61 -1163 0
-2126 -3 -2140 -5z"/>
<path d="M1993 8415 c-142 -39 -289 -158 -351 -285 -60 -123 -62 -141 -62
-835 l0 -630 -432 -240 c-237 -132 -442 -248 -455 -258 -29 -23 -31 -76 -5
-100 16 -15 66 -17 457 -19 l438 -3 13 -55 c48 -188 194 -345 379 -403 l70
-22 1645 0 c1568 0 1648 1 1705 18 148 46 270 144 337 273 70 133 68 95 68
1135 0 633 -4 954 -11 995 -36 196 -197 369 -398 428 -49 14 -221 16 -1700 15
-1382 0 -1654 -3 -1698 -14z"/>
<path d="M2687 5085 c-245 -40 -458 -127 -633 -258 -57 -44 -175 -160 -205
-203 -13 -19 -27 -21 -149 -27 -536 -22 -985 -302 -1155 -719 -36 -88 -65
-227 -65 -312 0 -84 27 -238 55 -311 14 -37 25 -69 25 -70 0 -2 -26 -18 -57
-35 -139 -78 -303 -227 -377 -343 -134 -209 -161 -451 -74 -667 62 -156 213
-334 373 -439 l80 -53 -3 -59 c-2 -32 4 -96 13 -142 l17 -84 -40 -62 c-85
-130 -110 -276 -73 -420 23 -93 26 -84 -38 -129 -43 -30 -110 -132 -131 -199
-46 -148 -7 -289 111 -405 158 -154 426 -192 632 -87 116 59 190 138 227 241
l18 53 114 11 c319 32 567 165 691 372 10 17 24 32 30 32 6 0 48 12 94 26 l82
26 63 -25 c209 -83 483 -146 778 -179 170 -18 584 -16 753 5 514 64 898 204
1165 426 105 88 213 244 247 358 l15 49 87 33 c276 103 469 260 573 464 27 54
50 103 50 110 0 7 29 25 65 41 102 44 263 156 341 237 162 168 237 339 236
539 0 155 -41 286 -132 421 -80 117 -225 242 -371 320 l-55 30 -12 67 c-36
212 -234 425 -516 557 -186 87 -454 154 -706 176 -160 14 -450 6 -595 -15 -55
-9 -106 -16 -112 -16 -7 0 -27 28 -44 63 -99 196 -261 352 -479 462 -130 65
-222 95 -410 136 -87 18 -400 21 -503 4z"/>
<path d="M9280 4799 c-917 -39 -1741 -447 -2076 -1029 -20 -36 -61 -101 -90
-145 -155 -236 -224 -496 -196 -746 65 -584 589 -1079 1402 -1322 265 -80 513
-116 841 -124 426 -10 767 37 1128 156 l123 41 42 -34 c140 -113 303 -166 511
-166 164 0 317 40 427 113 35 22 95 55 133 72 138 61 245 156 298 265 27 57
31 75 32 150 0 75 -4 93 -32 153 -36 75 -113 162 -184 209 l-47 30 48 72 c96
142 169 315 201 476 19 95 16 338 -4 428 -103 452 -435 826 -967 1092 -353
176 -808 291 -1215 305 -82 3 -163 7 -180 8 -16 2 -104 0 -195 -4z"/>
<path d="M11641 1575 c-78 -19 -179 -72 -225 -119 -44 -43 -86 -121 -86 -157
0 -13 -18 -38 -46 -62 -248 -218 105 -505 476 -388 37 12 88 39 119 62 30 23
81 50 112 61 111 37 215 132 239 216 47 170 -82 334 -306 387 -72 17 -210 17
-283 0z"/>
<path d="M12250 1010 c-173 -22 -295 -117 -316 -249 -5 -32 -14 -45 -41 -62
-105 -65 -110 -201 -12 -278 64 -50 118 -65 234 -65 100 -1 115 1 170 27 33
15 74 41 90 57 17 17 58 38 95 50 78 24 150 75 187 131 38 58 44 150 13 214
-58 120 -242 197 -420 175z"/>
</g>
</svg>
